<svg width="1024" height="1024" viewBox="0 0 1024 1024" fill="none" xmlns="http://www.w3.org/2000/svg">
<path d="M64 302.719C64 333.652 80.64 361.599 106.667 376.532L469.333 585.812V930.772C469.333 945.919 461.227 959.999 448 967.679C434.773 975.359 418.56 975.359 405.333 967.679L85.3333 782.932C72.1067 775.252 64 761.172 64 746.025V302.719Z" fill="url(#paint0_linear_608_6014)"/>
<path d="M448 56.3225C461.227 64.0025 469.333 78.0825 469.333 93.2292V585.816L106.667 376.536C80.64 361.603 64 333.656 64 302.723C64 272.216 80.2133 244.056 106.667 228.696L405.333 56.3225C418.56 48.6425 434.773 48.6425 448 56.3225Z" fill="url(#paint1_linear_608_6014)"/>
<path d="M618.667 56.3225L938.667 241.069C951.893 248.749 960 262.829 960 277.976V721.283C960 690.349 943.36 662.403 917.333 647.469L554.667 437.976V93.2292C554.667 78.0825 562.773 64.0025 576 56.3225C589.227 48.6425 605.44 48.6425 618.667 56.3225Z" fill="url(#paint2_linear_608_6014)"/>
<path d="M554.667 437.974L917.333 647.467C943.36 662.401 960 690.347 960 721.281C960 752.214 943.787 779.947 917.333 795.307L618.667 967.681C605.44 975.361 589.227 975.361 576 967.681C562.773 960.001 554.667 945.921 554.667 930.774V437.974Z" fill="url(#paint3_linear_608_6014)"/>
<g opacity="0.2">
<path d="M469.333 536.532V585.812L106.667 376.532C80.64 361.599 64 333.652 64 302.719C64 277.972 74.6667 254.932 92.8 238.932C82.56 249.172 76.8 262.826 76.8 277.972C76.8 298.026 87.2533 315.946 104.533 325.972L469.333 536.532Z" fill="black" style="mix-blend-mode:multiply"/>
</g>
<g opacity="0.2">
<path d="M931.2 785.067C941.44 774.827 947.2 761.174 947.2 746.028C947.2 725.974 936.747 708.054 919.467 698.028L554.667 487.467V438.188L789.973 573.867L917.333 647.467C943.36 662.401 960 690.348 960 721.281C960 746.028 949.333 769.067 931.2 785.067Z" fill="black" style="mix-blend-mode:multiply"/>
</g>
<defs>
<linearGradient id="paint0_linear_608_6014" x1="469.291" y1="668.547" x2="53.3785" y2="668.547" gradientUnits="userSpaceOnUse">
<stop stop-color="#12AD91"/>
<stop offset="1" stop-color="#009A7C"/>
</linearGradient>
<linearGradient id="paint1_linear_608_6014" x1="173.55" y1="407.348" x2="390.627" y2="58.1355" gradientUnits="userSpaceOnUse">
<stop stop-color="#007759"/>
<stop offset="1" stop-color="#009A7C"/>
</linearGradient>
<linearGradient id="paint2_linear_608_6014" x1="959.958" y1="338.631" x2="554.71" y2="338.631" gradientUnits="userSpaceOnUse">
<stop stop-color="#24BFA5"/>
<stop offset="0.996959" stop-color="#38D3B9"/>
</linearGradient>
<linearGradient id="paint3_linear_608_6014" x1="784.096" y1="582.626" x2="587.427" y2="966.616" gradientUnits="userSpaceOnUse">
<stop stop-color="#009A7C"/>
<stop offset="1" stop-color="#1BB69B"/>
</linearGradient>
</defs>
</svg>
